<?xml version="1.0" standalone="no"?>
<!DOCTYPE svg PUBLIC "-//W3C//DTD SVG 1.1//EN" "http://www.w3.org/Graphics/SVG/1.1/DTD/svg11.dtd" >
<svg xmlns="http://www.w3.org/2000/svg" xmlns:xlink="http://www.w3.org/1999/xlink" version="1.1">
<metadata></metadata>
<defs>
<font id="asteraregular" horiz-adv-x="1574" >
<font-face units-per-em="2048" ascent="1638" descent="-410" />
<missing-glyph horiz-adv-x="1000" />
<glyph horiz-adv-x="0" />
<glyph unicode="&#xd;" horiz-adv-x="508" />
<glyph unicode=" "  horiz-adv-x="1000" />
<glyph unicode="&#x09;" horiz-adv-x="1000" />
<glyph unicode="&#xa0;" horiz-adv-x="1000" />
<glyph unicode="!" horiz-adv-x="443" d="M50 330v245q1 4 5 4h333q5 0 5 -4v-245q0 -5 -5 -5h-333q-5 0 -5 5zM50 750v643q1 5 5 5h333q5 -1 5 -5v-643q0 -5 -5 -5h-333q-5 0 -5 5z" />
<glyph unicode="&#x22;" horiz-adv-x="672" />
<glyph unicode="#" horiz-adv-x="1336" />
<glyph unicode="$" horiz-adv-x="1014" />
<glyph unicode="%" d="M50 1083v202q0 76 91 108q18 5 34 5h317q84 0 120 -84q4 -10 4 -27v-189q0 -76 -91 -108q-18 -5 -33 -5h-317q-94 0 -125 98zM182 1158q0 -55 48 -72q13 -3 22 -3h170q60 13 60 58q2 0 2 17v67q-7 74 -60 74h-182q-52 0 -60 -74v-67zM453 330q327 1050 334 1068h333l5 -3 l-333 -1068l-5 -2h-329q-5 0 -5 5zM957 423v202q0 76 91 108q18 5 34 5h317q85 0 120 -84q5 -10 5 -27v-189q0 -76 -92 -108q-18 -5 -33 -5h-317q-94 0 -125 98zM1089 498q0 -55 48 -72q13 -3 22 -3h170q60 13 60 58q3 0 3 17v67q-8 74 -60 74h-183q-52 0 -60 -74v-67z" />
<glyph unicode="&#x26;" horiz-adv-x="1683" />
<glyph unicode="'" horiz-adv-x="346" />
<glyph unicode="(" horiz-adv-x="742" d="M50 288v1145q0 162 192 257q77 31 149 31h345q5 -1 5 -5v-245q0 -5 -5 -5h-340v-1212h340q5 0 5 -4v-245q0 -5 -5 -5h-345q-194 0 -312 173q-29 63 -29 115z" />
<glyph unicode=")" horiz-adv-x="742" d="M0 5v245q1 4 5 4h341v1212h-341q-5 0 -5 5v245q1 5 5 5h345q178 0 298 -149q43 -72 43 -139v-1145q0 -159 -192 -257q-77 -31 -149 -31h-345q-5 0 -5 5z" />
<glyph unicode="*" horiz-adv-x="1024" />
<glyph unicode="+" horiz-adv-x="940" d="M50 743v244q1 5 5 5h288v288q1 5 5 5h244q5 -1 5 -5v-288h288q5 -1 5 -5v-244q0 -5 -5 -5h-288v-288q0 -5 -5 -5h-244q-5 0 -5 5v288h-288q-5 0 -5 5z" />
<glyph unicode="," horiz-adv-x="443" d="M50 330v245q1 4 5 4h333l5 -2q-7 -68 -84 -154q-117 -98 -254 -98q-5 0 -5 5z" />
<glyph unicode="-" horiz-adv-x="940" d="M50 745v245q1 4 5 4h830q5 0 5 -4v-245q0 -5 -5 -5h-830q-5 0 -5 5z" />
<glyph unicode="." horiz-adv-x="443" d="M50 330v245q1 4 5 4h333q5 0 5 -4v-245q0 -5 -5 -5h-333q-5 0 -5 5z" />
<glyph unicode="/" horiz-adv-x="962" d="M50 2q492 1690 502 1719h355l5 -3l-502 -1718h-355z" />
<glyph unicode="0" d="M50 625v473q0 165 168 257q81 43 185 43h768q226 0 329 -187q24 -57 24 -111v-475q0 -166 -168 -257q-81 -43 -185 -43h-768q-203 0 -312 156q-41 65 -41 144zM393 757l622 384v2h-449q-119 0 -166 -124q-7 -18 -7 -48v-214zM554 579h454q118 0 165 125q7 18 7 48v216 l-626 -386v-3z" />
<glyph unicode="1" horiz-adv-x="700" d="M50 1148v245q1 5 5 5h254q178 0 298 -149q43 -72 43 -139v-780q0 -5 -5 -5h-333q-5 0 -5 5v689q0 87 -91 120q-20 4 -41 4h-120q-5 0 -5 5z" />
<glyph unicode="2" d="M50 330v348q0 193 223 281q64 19 123 19h693q63 0 87 55q4 24 4 29q0 50 -52 74q-16 7 -39 7h-1034q-5 0 -5 5v245q1 5 5 5h1128q174 0 290 -142q51 -70 51 -158v-53q0 -166 -168 -257q-80 -43 -185 -43h-629q-99 0 -139 -65q-7 -12 -7 -24v-77h1123q5 0 5 -4v-245 q0 -5 -5 -5h-1464q-5 0 -5 5z" />
<glyph unicode="3" d="M50 330v245q1 4 5 4h1027q75 0 96 58q5 20 5 26q0 50 -53 75q-16 7 -38 7h-747q-5 0 -5 5v223q1 5 5 5h747q60 0 84 50q7 26 7 31q-20 82 -79 82q0 2 -17 2h-1032q-5 0 -5 5v245q1 5 5 5h1123q180 0 293 -139q53 -78 53 -152v-19q0 -125 -125 -221q98 -81 115 -160 q10 -25 10 -70v-24q0 -162 -192 -257q-45 -19 -118 -31h-1159q-5 0 -5 5z" />
<glyph unicode="4" d="M50 1033v360q1 5 5 5h333q5 -1 5 -5v-233q0 -133 132 -177q30 -5 51 -5h604v415q1 5 5 5h334q5 -1 5 -5v-1063q0 -5 -5 -5h-334q-5 0 -5 5v415h-789q-178 0 -298 149q-43 72 -43 139z" />
<glyph unicode="5" d="M50 330v245q1 4 5 4h1034q63 0 87 56q4 24 4 28q0 50 -52 75q-16 7 -39 7h-686q-207 0 -315 161q-38 63 -38 132v355q1 5 5 5h1464q5 -1 5 -5v-245q0 -5 -5 -5h-1123v-62q0 -86 124 -103h651q202 0 312 -156q41 -67 41 -135v-69q0 -144 -147 -238q-93 -55 -211 -55h-1111 q-5 0 -5 5z" />
<glyph unicode="6" d="M50 625v480q0 163 182 257q79 36 164 36h832q5 -1 5 -5v-245q0 -5 -5 -5h-751q-58 0 -81 -62q-3 -13 -3 -24v-79h778q216 0 324 -175q29 -58 29 -113v-72q0 -163 -185 -259q-80 -34 -168 -34h-768q-203 0 -312 156q-41 65 -41 144zM393 666q8 -87 87 -87h609q59 0 82 48 q9 20 9 36q0 50 -52 75q-16 7 -39 7h-696v-79z" />
<glyph unicode="7" horiz-adv-x="1576" d="M50 1148v245q1 5 5 5h1466q5 -1 5 -5v-247q-9 -26 -187 -291q-13 -24 -346 -530h-410v5l530 811v2h-1058q-5 0 -5 5z" />
<glyph unicode="8" d="M50 618q0 117 125 216q33 19 36 19v5q-161 94 -161 237v3q0 165 168 257q81 43 185 43h768q216 0 324 -175q29 -58 29 -113v-12q0 -143 -159 -243q159 -94 159 -240v-16q0 -78 -82 -171q-116 -103 -264 -103h-775q-220 0 -327 180q-26 60 -26 113zM393 661q0 -54 60 -77 q10 -5 27 -5h604q70 0 92 56q4 24 4 28q0 55 -60 77q-9 5 -26 5h-614q-87 -12 -87 -84zM393 1059q0 -54 60 -76q10 -5 27 -5h616q84 12 84 84q0 56 -64 79q-10 2 -20 2h-616q-87 -11 -87 -84z" />
<glyph unicode="9" d="M50 330v245q1 4 5 4h1039q86 9 86 87v79h-777q-216 0 -324 175q-29 63 -29 115v75q0 137 149 235q92 53 204 53h768q202 0 312 -156q41 -64 41 -144v-485q0 -144 -159 -240q-98 -48 -163 -48h-1147q-5 0 -5 5zM393 1057q0 -54 65 -77q9 -2 22 -2h700v79q0 73 -76 86h-624 q-64 0 -84 -64q-3 -9 -3 -22z" />
<glyph unicode=":" horiz-adv-x="443" d="M50 510v245q1 4 5 4h333q5 0 5 -4v-245q0 -5 -5 -5h-333q-5 0 -5 5zM50 978v245q1 4 5 4h333q5 0 5 -4v-245q0 -5 -5 -5h-333q-5 0 -5 5z" />
<glyph unicode=";" horiz-adv-x="443" d="M50 510v245q1 4 5 4h333l5 -2q-7 -68 -84 -154q-117 -98 -254 -98q-5 0 -5 5zM50 978v245q1 4 5 4h333q5 0 5 -4v-245q0 -5 -5 -5h-333q-5 0 -5 5z" />
<glyph unicode="&#x3c;" horiz-adv-x="1014" />
<glyph unicode="=" horiz-adv-x="940" d="M50 510v245q1 4 5 4h830q5 0 5 -4v-245q0 -5 -5 -5h-830q-5 0 -5 5zM50 975v245q1 5 5 5h830q5 -1 5 -5v-245q0 -4 -5 -4h-830q-5 0 -5 4z" />
<glyph unicode="&#x3e;" horiz-adv-x="1014" />
<glyph unicode="?" horiz-adv-x="1365" d="M50 1148v245q1 5 5 5h929q180 0 292 -156q39 -71 39 -130v-77q0 -140 -147 -240q-94 -50 -184 -50h-468q-5 0 -5 5v129q0 78 129 99h240q65 0 87 57q5 24 5 27q0 56 -65 79q-21 2 -34 2h-818q-5 0 -5 5zM511 330v245q1 4 5 4h333q5 0 5 -4v-245q0 -5 -5 -5h-333 q-5 0 -5 5z" />
<glyph unicode="@" horiz-adv-x="2019" />
<glyph unicode="A" horiz-adv-x="1706" d="M50 325v5q608 1033 631 1068h341q10 -9 211 -351q406 -689 423 -720v-2h-394q-14 14 -365 614q-43 72 -45 72q-395 -671 -406 -686h-396z" />
<glyph unicode="B" d="M50 330v1063q1 5 5 5h1128q192 0 307 -166q34 -67 34 -125v-16q0 -128 -125 -226q125 -105 125 -209v-48q0 -129 -147 -230q-99 -48 -144 -48q0 -5 -12 -5h-1166q-5 0 -5 5zM393 579h696q63 0 87 56q4 24 4 28q0 50 -52 75q-16 7 -39 7h-696v-166zM393 978h696 q63 0 87 55q4 24 4 29q0 59 -72 81h-715v-165z" />
<glyph unicode="C" d="M50 615v500q0 131 149 230q97 53 185 53h1135q5 -1 5 -5v-245q0 -5 -5 -5h-951q-129 0 -172 -141q-3 -25 -3 -39v-208q0 -118 118 -166q24 -10 57 -10h951q5 0 5 -4v-245q0 -5 -5 -5h-1128q-175 0 -291 142q-50 72 -50 148z" />
<glyph unicode="D" d="M50 330v1063q1 5 5 5h1130q153 0 269 -118q70 -81 70 -175v-492q0 -137 -149 -235q-97 -53 -185 -53h-1135q-5 0 -5 5zM393 579h615q116 0 165 123q7 25 7 50v216q0 118 -117 166q-25 9 -58 9h-612v-564z" />
<glyph unicode="E" d="M50 330v245q1 4 5 4h1464q5 0 5 -4v-245q0 -5 -5 -5h-1464q-5 0 -5 5zM50 750v223q1 5 5 5h1464q5 -1 5 -5v-223q0 -5 -5 -5h-1464q-5 0 -5 5zM50 1148v245q1 5 5 5h1464q5 -1 5 -5v-245q0 -5 -5 -5h-1464q-5 0 -5 5z" />
<glyph unicode="F" d="M50 330v643q1 5 5 5h1464q5 -1 5 -5v-223q0 -5 -5 -5h-1126v-415q0 -5 -5 -5h-333q-5 0 -5 5zM50 1148v245q1 5 5 5h1464q5 -1 5 -5v-245q0 -5 -5 -5h-1464q-5 0 -5 5z" />
<glyph unicode="G" d="M50 618v489q0 163 187 257q82 34 147 34h1135q5 -1 5 -5v-245q0 -5 -5 -5h-951q-122 0 -170 -129q-5 -27 -5 -39v-220q0 -118 118 -166q24 -10 57 -10h612v197q1 5 5 5h334q5 -1 5 -5v-446q0 -5 -5 -5h-1128q-156 0 -271 118q-70 82 -70 175z" />
<glyph unicode="H" d="M50 330v1063q1 5 5 5h333q5 -1 5 -5v-415h787v415q1 5 5 5h334q5 -1 5 -5v-1063q0 -5 -5 -5h-334q-5 0 -5 5v415h-787v-415q0 -5 -5 -5h-333q-5 0 -5 5z" />
<glyph unicode="I" horiz-adv-x="443" d="M50 330v1063q1 5 5 5h333q5 -1 5 -5v-1063q0 -5 -5 -5h-333q-5 0 -5 5z" />
<glyph unicode="J" d="M50 330v444q1 5 5 5h333q5 -1 5 -5v-195h612q117 0 166 118q9 27 9 58v638q1 5 5 5h334q5 -1 5 -5v-797q0 -108 -135 -209q-102 -62 -209 -62h-1125q-5 0 -5 5z" />
<glyph unicode="K" horiz-adv-x="1571" d="M50 330v1063q1 5 5 5h333q5 -1 5 -5v-427l667 432h461v-3q-43 -34 -564 -367v-2l564 -696v-3h-439q-7 5 -415 509l-274 -175v-331q0 -5 -5 -5h-333q-5 0 -5 5z" />
<glyph unicode="L" d="M50 330v1063q1 5 5 5h333q5 -1 5 -5v-814h1126q5 0 5 -4v-245q0 -5 -5 -5h-1464q-5 0 -5 5z" />
<glyph unicode="M" horiz-adv-x="1710" d="M50 330v1063q1 5 5 5h343l458 -531q454 531 456 531h344q4 -1 4 -5v-1063q0 -5 -4 -5h-334q-5 0 -5 5v633l-458 -532h-5q-4 1 -461 532v-633q0 -5 -5 -5h-333q-5 0 -5 5z" />
<glyph unicode="N" d="M50 330v1063q1 5 5 5h1137q152 0 276 -132q56 -79 56 -156v-780q0 -5 -5 -5h-334q-5 0 -5 5v621q0 142 -122 185q-29 7 -53 7h-612v-813q0 -5 -5 -5h-333q-5 0 -5 5z" />
<glyph unicode="O" d="M50 615v490q0 171 202 266q80 27 129 27h797q180 0 293 -139q53 -74 53 -156v-485q0 -163 -183 -257q-77 -36 -163 -36h-787q-175 0 -291 142q-50 71 -50 148zM393 757q0 -130 135 -173q19 -5 40 -5h440q118 0 165 125q7 18 7 48v204q0 137 -127 183q-37 4 -65 4h-420 q-121 0 -168 -124q-7 -25 -7 -51v-211z" />
<glyph unicode="P" d="M50 330v1063q1 5 5 5h1128q176 0 293 -144q48 -76 48 -144v-199q0 -145 -156 -245q-89 -46 -176 -46h-799v-290q0 -5 -5 -5h-333q-5 0 -5 5zM393 875h651q104 0 132 91q4 21 4 41q0 97 -81 129q-25 7 -51 7h-655v-268z" />
<glyph unicode="Q" d="M50 611v499q0 118 122 216q109 72 214 72h809q112 -15 177 -53q152 -95 152 -250v-477q0 -166 -188 -259q-80 -34 -146 -34h-804q-149 0 -269 122q-67 88 -67 164zM393 757q0 -130 135 -173q19 -5 40 -5h46v197q1 5 5 5h336q5 -1 5 -5v-197h48q118 0 165 125q7 18 7 48 v216q0 117 -117 166q-25 9 -58 9h-437q-121 0 -168 -124q-7 -25 -7 -51v-211z" />
<glyph unicode="R" d="M50 330v1063q1 5 5 5h1130q154 0 269 -118q70 -81 70 -175v-194q0 -151 -166 -250l-43 -19l209 -315l-5 -2h-406q-15 17 -199 295h-521v-290q0 -5 -5 -5h-333q-5 0 -5 5zM393 875h651q104 0 132 91q4 21 4 41q0 97 -81 129q-25 7 -51 7h-655v-268z" />
<glyph unicode="S" d="M50 330v245q1 4 5 4h1034q63 0 87 56q4 24 4 28q0 50 -52 75q-16 7 -39 7h-696q-172 0 -288 134q-55 73 -55 154v74q0 147 163 243q93 43 171 48h1135q5 -1 5 -5v-245q0 -5 -5 -5h-1039q-87 -11 -87 -84q0 -49 53 -74q16 -7 38 -7h706q149 0 264 -118q70 -81 70 -173v-74 q0 -157 -183 -254q-76 -34 -156 -34h-1130q-5 0 -5 5z" />
<glyph unicode="T" d="M50 1148v245q1 5 5 5h1464q5 -1 5 -5v-245q0 -5 -5 -5h-559v-813q0 -5 -5 -5h-334q-5 0 -5 5v813h-561q-5 0 -5 5z" />
<glyph unicode="U" d="M50 615v778q1 5 5 5h333q5 -1 5 -5v-622q0 -141 123 -184q28 -8 52 -8h612v814q1 5 5 5h334q5 -1 5 -5v-1063q0 -5 -5 -5h-1143q-146 0 -261 122q-65 79 -65 168z" />
<glyph unicode="V" horiz-adv-x="1706" d="M50 1398h394q18 -20 132 -221q9 -11 276 -466h2q399 678 406 687h396q0 -10 -303 -516q-236 -404 -329 -557h-343q-25 36 -621 1054q-4 0 -10 19z" />
<glyph unicode="W" horiz-adv-x="1708" d="M50 1395l5 3h341q7 0 33 -161q3 -3 106 -554q14 16 317 460h2q27 -34 307 -446q10 -14 12 -14q127 681 137 715h343q5 -1 5 -5q-197 -1041 -204 -1068h-346l-254 367q-29 -38 -252 -367h-346q-7 0 -43 214q-7 26 -163 856z" />
<glyph unicode="X" horiz-adv-x="1710" d="M50 330q40 35 554 530v3q-21 23 -552 532l5 3h483q13 0 69 -63q17 -13 245 -232h2q278 267 310 295h487q5 -1 5 -5q-35 -30 -552 -528v-2q15 -17 554 -536l-4 -2h-488q-36 32 -312 298h-2q-275 -266 -312 -298h-487q-5 0 -5 5z" />
<glyph unicode="Y" horiz-adv-x="1576" d="M50 1395l5 3h338l396 -427q383 418 394 427h338q5 -1 5 -5q-46 -46 -566 -614v-449q0 -5 -5 -5h-334q-5 0 -5 5v449z" />
<glyph unicode="Z" d="M50 330v247q15 15 605 355q163 99 357 209v2h-957q-5 0 -5 5v245q1 5 5 5h1464q5 -1 5 -5v-245q-27 -22 -495 -290q-460 -273 -473 -276v-3h963q5 0 5 -4v-245q0 -5 -5 -5h-1464q-5 0 -5 5z" />
<glyph unicode="[" horiz-adv-x="742" d="M50 5v1711q1 5 5 5h681q5 -1 5 -5v-245q0 -5 -5 -5h-340v-1212h340q5 0 5 -4v-245q0 -5 -5 -5h-681q-5 0 -5 5z" />
<glyph unicode="\" horiz-adv-x="962" d="M50 1718l5 3h353q12 -18 40 -132q10 -28 464 -1587l-5 -2h-353q-6 0 -50 168z" />
<glyph unicode="]" horiz-adv-x="742" d="M0 5v245q1 4 5 4h341v1212h-341q-5 0 -5 5v245q1 5 5 5h681q5 -1 5 -5v-1711q0 -5 -5 -5h-681q-5 0 -5 5z" />
<glyph unicode="^" horiz-adv-x="1014" />
<glyph unicode="_" horiz-adv-x="1305" d="M50 5v245q1 4 5 4h1195q5 0 5 -4v-245q0 -5 -5 -5h-1195q-5 0 -5 5z" />
<glyph unicode="`" horiz-adv-x="1024" />
<glyph unicode="a" horiz-adv-x="1706" d="M50 325v5q608 1033 631 1068h341q10 -9 211 -351q406 -689 423 -720v-2h-394q-11 10 -130 216h-559q-113 -197 -127 -216h-396zM724 795h257q-122 209 -129 216z" />
<glyph unicode="b" d="M50 330v1063q1 5 5 5h1128q192 0 307 -166q34 -67 34 -125v-16q0 -128 -125 -226q125 -105 125 -209v-48q0 -129 -147 -230q-99 -48 -144 -48q0 -5 -12 -5h-1166q-5 0 -5 5zM393 579h696q63 0 87 56q4 24 4 28q0 50 -52 75q-16 7 -39 7h-696v-166zM393 978h696 q63 0 87 55q4 24 4 29q0 59 -72 81h-715v-165z" />
<glyph unicode="c" d="M50 615v500q0 131 149 230q97 53 185 53h1135q5 -1 5 -5v-245q0 -5 -5 -5h-951q-129 0 -172 -141q-3 -25 -3 -39v-208q0 -118 118 -166q24 -10 57 -10h951q5 0 5 -4v-245q0 -5 -5 -5h-1128q-175 0 -291 142q-50 72 -50 148z" />
<glyph unicode="d" d="M50 330v1063q1 5 5 5h1130q153 0 269 -118q70 -81 70 -175v-492q0 -137 -149 -235q-97 -53 -185 -53h-1135q-5 0 -5 5zM393 579h615q116 0 165 123q7 25 7 50v216q0 118 -117 166q-25 9 -58 9h-612v-564z" />
<glyph unicode="e" d="M50 330v1063q1 5 5 5h1464q5 -1 5 -5v-245q0 -5 -5 -5h-1126v-165h833q5 -1 5 -5v-223q0 -5 -5 -5h-833v-166h1126q5 0 5 -4v-245q0 -5 -5 -5h-1464q-5 0 -5 5z" />
<glyph unicode="f" d="M50 330v1063q1 5 5 5h1464q5 -1 5 -5v-245q0 -5 -5 -5h-1126v-165h833q5 -1 5 -5v-223q0 -5 -5 -5h-833v-415q0 -5 -5 -5h-333q-5 0 -5 5z" />
<glyph unicode="g" d="M50 618v489q0 163 187 257q82 34 147 34h1135q5 -1 5 -5v-245q0 -5 -5 -5h-951q-122 0 -170 -129q-5 -27 -5 -39v-220q0 -118 118 -166q24 -10 57 -10h612v197q1 5 5 5h334q5 -1 5 -5v-446q0 -5 -5 -5h-1128q-156 0 -271 118q-70 82 -70 175z" />
<glyph unicode="h" d="M50 330v1063q1 5 5 5h333q5 -1 5 -5v-415h787v415q1 5 5 5h334q5 -1 5 -5v-1063q0 -5 -5 -5h-334q-5 0 -5 5v415h-787v-415q0 -5 -5 -5h-333q-5 0 -5 5z" />
<glyph unicode="i" horiz-adv-x="443" d="M50 330v1063q1 5 5 5h333q5 -1 5 -5v-1063q0 -5 -5 -5h-333q-5 0 -5 5z" />
<glyph unicode="j" d="M50 330v444q1 5 5 5h333q5 -1 5 -5v-195h612q117 0 166 118q9 27 9 58v638q1 5 5 5h334q5 -1 5 -5v-797q0 -108 -135 -209q-102 -62 -209 -62h-1125q-5 0 -5 5z" />
<glyph unicode="k" horiz-adv-x="1571" d="M50 330v1063q1 5 5 5h333q5 -1 5 -5v-427l667 432h461v-3q-43 -34 -564 -367v-2l564 -696v-3h-439q-7 5 -415 509l-274 -175v-331q0 -5 -5 -5h-333q-5 0 -5 5z" />
<glyph unicode="l" d="M50 330v1063q1 5 5 5h333q5 -1 5 -5v-814h1126q5 0 5 -4v-245q0 -5 -5 -5h-1464q-5 0 -5 5z" />
<glyph unicode="m" horiz-adv-x="1710" d="M50 330v1063q1 5 5 5h343l458 -531q454 531 456 531h344q4 -1 4 -5v-1063q0 -5 -4 -5h-334q-5 0 -5 5v633l-458 -532h-5q-4 1 -461 532v-633q0 -5 -5 -5h-333q-5 0 -5 5z" />
<glyph unicode="n" d="M50 330v1063q1 5 5 5h336q307 -281 787 -725h2v720q1 5 5 5h334q5 -1 5 -5v-1063q0 -5 -5 -5h-341l-785 722v-717q0 -5 -5 -5h-333q-5 0 -5 5z" />
<glyph unicode="o" d="M50 615v490q0 171 202 266q80 27 129 27h797q180 0 293 -139q53 -74 53 -156v-485q0 -163 -183 -257q-77 -36 -163 -36h-787q-175 0 -291 142q-50 71 -50 148zM393 757q0 -130 135 -173q19 -5 40 -5h440q118 0 165 125q7 18 7 48v204q0 137 -127 183q-37 4 -65 4h-420 q-121 0 -168 -124q-7 -25 -7 -51v-211z" />
<glyph unicode="p" d="M50 330v1063q1 5 5 5h1128q176 0 293 -144q48 -76 48 -144v-199q0 -145 -156 -245q-89 -46 -176 -46h-799v-290q0 -5 -5 -5h-333q-5 0 -5 5zM393 875h651q104 0 132 91q4 21 4 41q0 97 -81 129q-25 7 -51 7h-655v-268z" />
<glyph unicode="q" d="M50 611v499q0 118 122 216q109 72 214 72h809q112 -15 177 -53q152 -95 152 -250v-477q0 -166 -188 -259q-80 -34 -146 -34h-804q-149 0 -269 122q-67 88 -67 164zM393 757q0 -130 135 -173q19 -5 40 -5h46v197q1 5 5 5h336q5 -1 5 -5v-197h48q118 0 165 125q7 18 7 48 v216q0 117 -117 166q-25 9 -58 9h-437q-121 0 -168 -124q-7 -25 -7 -51v-211z" />
<glyph unicode="r" d="M50 330v1063q1 5 5 5h1130q154 0 269 -118q70 -81 70 -175v-194q0 -151 -166 -250l-43 -19l209 -315l-5 -2h-406q-15 17 -199 295h-521v-290q0 -5 -5 -5h-333q-5 0 -5 5zM393 875h651q104 0 132 91q4 21 4 41q0 97 -81 129q-25 7 -51 7h-655v-268z" />
<glyph unicode="s" d="M50 330v245q1 4 5 4h1034q63 0 87 56q4 24 4 28q0 50 -52 75q-16 7 -39 7h-696q-172 0 -288 134q-55 73 -55 154v74q0 147 163 243q93 43 171 48h1135q5 -1 5 -5v-245q0 -5 -5 -5h-1039q-87 -11 -87 -84q0 -49 53 -74q16 -7 38 -7h706q149 0 264 -118q70 -81 70 -173v-74 q0 -157 -183 -254q-76 -34 -156 -34h-1130q-5 0 -5 5z" />
<glyph unicode="t" d="M50 1148v245q1 5 5 5h1464q5 -1 5 -5v-245q0 -5 -5 -5h-559v-813q0 -5 -5 -5h-334q-5 0 -5 5v813h-561q-5 0 -5 5z" />
<glyph unicode="u" d="M50 615v778q1 5 5 5h333q5 -1 5 -5v-624q0 -135 120 -180q24 -10 70 -10h413q130 0 177 123q7 30 7 69v622q1 5 5 5h334q5 -1 5 -5v-778q0 -155 -173 -252q-81 -38 -161 -38h-814q-146 0 -261 122q-65 79 -65 168z" />
<glyph unicode="v" horiz-adv-x="1706" d="M50 1398h394q18 -20 132 -221q9 -11 276 -466h2q399 678 406 687h396q0 -10 -303 -516q-236 -404 -329 -557h-343q-25 36 -621 1054q-4 0 -10 19z" />
<glyph unicode="w" horiz-adv-x="1708" d="M50 1395l5 3h341q7 0 33 -161q3 -3 106 -554q14 16 317 460h2q27 -34 307 -446q10 -14 12 -14q127 681 137 715h343q5 -1 5 -5q-197 -1041 -204 -1068h-346l-254 367q-29 -38 -252 -367h-346q-7 0 -43 214q-7 26 -163 856z" />
<glyph unicode="x" horiz-adv-x="1710" d="M50 330q40 35 554 530v3q-21 23 -552 532l5 3h483q13 0 69 -63q17 -13 245 -232h2q278 267 310 295h487q5 -1 5 -5q-35 -30 -552 -528v-2q15 -17 554 -536l-4 -2h-488q-36 32 -312 298h-2q-275 -266 -312 -298h-487q-5 0 -5 5z" />
<glyph unicode="y" horiz-adv-x="1576" d="M50 1395l5 3h338l396 -427q383 418 394 427h338q5 -1 5 -5q-46 -46 -566 -614v-449q0 -5 -5 -5h-334q-5 0 -5 5v449z" />
<glyph unicode="z" d="M50 330v247q15 15 605 355q163 99 357 209v2h-957q-5 0 -5 5v245q1 5 5 5h1464q5 -1 5 -5v-245q-27 -22 -495 -290q-460 -273 -473 -276v-3h963q5 0 5 -4v-245q0 -5 -5 -5h-1464q-5 0 -5 5z" />
<glyph unicode="{" horiz-adv-x="1014" />
<glyph unicode="|" horiz-adv-x="446" d="M50 5v1711q1 5 5 5h336q5 -1 5 -5v-1711q0 -5 -5 -5h-336q-5 0 -5 5z" />
<glyph unicode="}" horiz-adv-x="1014" />
<glyph unicode="~" horiz-adv-x="1014" />
<glyph unicode="&#xa1;" horiz-adv-x="672" />
<glyph unicode="&#xa2;" horiz-adv-x="1139" />
<glyph unicode="&#xa3;" horiz-adv-x="1014" />
<glyph unicode="&#xa4;" horiz-adv-x="1014" />
<glyph unicode="&#xa5;" horiz-adv-x="1262" />
<glyph unicode="&#xa6;" horiz-adv-x="1014" />
<glyph unicode="&#xa7;" horiz-adv-x="1014" />
<glyph unicode="&#xa8;" horiz-adv-x="1024" />
<glyph unicode="&#xa9;" horiz-adv-x="1674" />
<glyph unicode="&#xaa;" horiz-adv-x="648" />
<glyph unicode="&#xab;" horiz-adv-x="944" />
<glyph unicode="&#xac;" horiz-adv-x="1014" />
<glyph unicode="&#xad;" horiz-adv-x="940" d="M50 745v245q1 4 5 4h830q5 0 5 -4v-245q0 -5 -5 -5h-830q-5 0 -5 5z" />
<glyph unicode="&#xae;" horiz-adv-x="1674" />
<glyph unicode="&#xaf;" horiz-adv-x="670" />
<glyph unicode="&#xb0;" horiz-adv-x="674" />
<glyph unicode="&#xb1;" horiz-adv-x="1014" />
<glyph unicode="&#xb2;" horiz-adv-x="1014" />
<glyph unicode="&#xb3;" horiz-adv-x="1014" />
<glyph unicode="&#xb4;" horiz-adv-x="1024" />
<glyph unicode="&#xb5;" horiz-adv-x="1180" />
<glyph unicode="&#xb6;" horiz-adv-x="1024" />
<glyph unicode="&#xb7;" horiz-adv-x="508" />
<glyph unicode="&#xb8;" horiz-adv-x="1024" />
<glyph unicode="&#xb9;" horiz-adv-x="1014" />
<glyph unicode="&#xba;" horiz-adv-x="718" />
<glyph unicode="&#xbb;" horiz-adv-x="944" />
<glyph unicode="&#xbc;" horiz-adv-x="1708" />
<glyph unicode="&#xbd;" horiz-adv-x="1964" />
<glyph unicode="&#xbe;" horiz-adv-x="1708" />
<glyph unicode="&#xbf;" horiz-adv-x="748" />
<glyph unicode="&#xc0;" horiz-adv-x="1540" />
<glyph unicode="&#xc1;" horiz-adv-x="1540" />
<glyph unicode="&#xc2;" horiz-adv-x="1540" />
<glyph unicode="&#xc3;" horiz-adv-x="1540" />
<glyph unicode="&#xc4;" horiz-adv-x="1540" />
<glyph unicode="&#xc5;" horiz-adv-x="1540" />
<glyph unicode="&#xc6;" horiz-adv-x="2118" />
<glyph unicode="&#xc7;" horiz-adv-x="1399" />
<glyph unicode="&#xc8;" horiz-adv-x="1151" />
<glyph unicode="&#xc9;" horiz-adv-x="1151" />
<glyph unicode="&#xca;" horiz-adv-x="1151" />
<glyph unicode="&#xcb;" horiz-adv-x="1151" />
<glyph unicode="&#xcc;" horiz-adv-x="657" />
<glyph unicode="&#xcd;" horiz-adv-x="657" />
<glyph unicode="&#xce;" horiz-adv-x="657" />
<glyph unicode="&#xcf;" horiz-adv-x="657" />
<glyph unicode="&#xd0;" horiz-adv-x="1518" />
<glyph unicode="&#xd1;" horiz-adv-x="1554" />
<glyph unicode="&#xd2;" horiz-adv-x="1614" />
<glyph unicode="&#xd3;" horiz-adv-x="1614" />
<glyph unicode="&#xd4;" horiz-adv-x="1614" />
<glyph unicode="&#xd5;" horiz-adv-x="1614" />
<glyph unicode="&#xd6;" horiz-adv-x="1614" />
<glyph unicode="&#xd7;" horiz-adv-x="1014" />
<glyph unicode="&#xd8;" horiz-adv-x="1614" />
<glyph unicode="&#xd9;" horiz-adv-x="1501" />
<glyph unicode="&#xda;" horiz-adv-x="1501" />
<glyph unicode="&#xdb;" horiz-adv-x="1501" />
<glyph unicode="&#xdc;" horiz-adv-x="1501" />
<glyph unicode="&#xdd;" horiz-adv-x="1233" />
<glyph unicode="&#xde;" horiz-adv-x="1120" />
<glyph unicode="&#xdf;" horiz-adv-x="1251" />
<glyph unicode="&#xe0;" horiz-adv-x="922" />
<glyph unicode="&#xe1;" horiz-adv-x="922" />
<glyph unicode="&#xe2;" horiz-adv-x="922" />
<glyph unicode="&#xe3;" horiz-adv-x="922" />
<glyph unicode="&#xe4;" horiz-adv-x="922" />
<glyph unicode="&#xe5;" horiz-adv-x="922" />
<glyph unicode="&#xe6;" horiz-adv-x="1454" />
<glyph unicode="&#xe7;" horiz-adv-x="905" />
<glyph unicode="&#xe8;" horiz-adv-x="909" />
<glyph unicode="&#xe9;" horiz-adv-x="909" />
<glyph unicode="&#xea;" horiz-adv-x="909" />
<glyph unicode="&#xeb;" horiz-adv-x="909" />
<glyph unicode="&#xec;" horiz-adv-x="514" />
<glyph unicode="&#xed;" horiz-adv-x="514" />
<glyph unicode="&#xee;" horiz-adv-x="514" />
<glyph unicode="&#xef;" horiz-adv-x="514" />
<glyph unicode="&#xf0;" horiz-adv-x="1139" />
<glyph unicode="&#xf1;" horiz-adv-x="1108" />
<glyph unicode="&#xf2;" horiz-adv-x="1010" />
<glyph unicode="&#xf3;" horiz-adv-x="1010" />
<glyph unicode="&#xf4;" horiz-adv-x="1010" />
<glyph unicode="&#xf5;" horiz-adv-x="1010" />
<glyph unicode="&#xf6;" horiz-adv-x="1010" />
<glyph unicode="&#xf7;" horiz-adv-x="1014" />
<glyph unicode="&#xf8;" horiz-adv-x="1010" />
<glyph unicode="&#xf9;" horiz-adv-x="1059" />
<glyph unicode="&#xfa;" horiz-adv-x="1059" />
<glyph unicode="&#xfb;" horiz-adv-x="1059" />
<glyph unicode="&#xfc;" horiz-adv-x="1059" />
<glyph unicode="&#xfd;" horiz-adv-x="868" />
<glyph unicode="&#xfe;" horiz-adv-x="1010" />
<glyph unicode="&#xff;" horiz-adv-x="868" />
<glyph unicode="&#x2c6;" horiz-adv-x="1024" />
<glyph unicode="&#x2dc;" horiz-adv-x="1024" />
<glyph unicode="&#x2000;" horiz-adv-x="860" />
<glyph unicode="&#x2001;" horiz-adv-x="1721" />
<glyph unicode="&#x2002;" horiz-adv-x="860" />
<glyph unicode="&#x2003;" horiz-adv-x="1721" />
<glyph unicode="&#x2004;" horiz-adv-x="573" />
<glyph unicode="&#x2005;" horiz-adv-x="430" />
<glyph unicode="&#x2006;" horiz-adv-x="286" />
<glyph unicode="&#x2007;" horiz-adv-x="286" />
<glyph unicode="&#x2008;" horiz-adv-x="215" />
<glyph unicode="&#x2009;" horiz-adv-x="344" />
<glyph unicode="&#x200a;" horiz-adv-x="95" />
<glyph unicode="&#x2010;" horiz-adv-x="940" d="M50 745v245q1 4 5 4h830q5 0 5 -4v-245q0 -5 -5 -5h-830q-5 0 -5 5z" />
<glyph unicode="&#x2011;" horiz-adv-x="940" d="M50 745v245q1 4 5 4h830q5 0 5 -4v-245q0 -5 -5 -5h-830q-5 0 -5 5z" />
<glyph unicode="&#x2012;" horiz-adv-x="940" d="M50 745v245q1 4 5 4h830q5 0 5 -4v-245q0 -5 -5 -5h-830q-5 0 -5 5z" />
<glyph unicode="&#x2013;" horiz-adv-x="1108" />
<glyph unicode="&#x2014;" horiz-adv-x="2048" />
<glyph unicode="&#x2018;" horiz-adv-x="557" />
<glyph unicode="&#x2019;" horiz-adv-x="557" />
<glyph unicode="&#x201a;" horiz-adv-x="557" />
<glyph unicode="&#x201c;" horiz-adv-x="910" />
<glyph unicode="&#x201d;" horiz-adv-x="910" />
<glyph unicode="&#x201e;" horiz-adv-x="910" />
<glyph unicode="&#x2022;" horiz-adv-x="1024" />
<glyph unicode="&#x2026;" horiz-adv-x="2048" />
<glyph unicode="&#x202f;" horiz-adv-x="344" />
<glyph unicode="&#x2039;" horiz-adv-x="631" />
<glyph unicode="&#x203a;" horiz-adv-x="631" />
<glyph unicode="&#x205f;" horiz-adv-x="430" />
<glyph unicode="&#x20ac;" horiz-adv-x="1014" />
<glyph unicode="&#x2122;" horiz-adv-x="1497" />
<glyph unicode="&#x25fc;" horiz-adv-x="1400" d="M0 0v1400h1400v-1400h-1400z" />
</font>
</defs>
</svg>
