<?xml version="1.0" encoding="utf-8"?>
<!-- Generator: Adobe Illustrator 19.0.0, SVG Export Plug-In . SVG Version: 6.00 Build 0)  -->
<svg version="1.1" id="Layer_1" xmlns="http://www.w3.org/2000/svg" xmlns:xlink="http://www.w3.org/1999/xlink" x="0px" y="0px"
	 viewBox="0 0 344.9 300" style="enable-background:new 0 0 344.9 300;" xml:space="preserve">
<style type="text/css">
	.st0{fill:#333333;}
	.st1{fill:#FFFFFF;}
	.st2{fill:#1E120D;}
</style>
<g id="XMLID_2_">
	<g id="XMLID_12_">
		<g id="XMLID_13_">
			<path id="XMLID_15_" class="st0" d="M6.2,140.2c0-20.3,13.1-37.5,31.2-43.4c3.2-32.1,29.9-57.2,62.5-57.2
				c16.4,0,31.3,6.3,42.4,16.7c1.4-30.4,26.2-54.5,56.5-54.5c25,0,46.2,16.4,53.7,39.1c4.4-0.8,8.9-1.3,13.6-1.3
				c40.7,0,73.7,33.4,73.7,74.5c0,29.4-16.8,54.8-41.2,66.9c0.5,2.9,0.8,5.8,0.8,8.8c0,26-20.8,47-46.5,47
				c-12.3,0-23.5-4.8-31.8-12.7c-6.7,6.1-15.7,9.8-25.4,9.8c-13.3,0-25-6.9-31.9-17.4c-5,6.4-12.8,10.6-21.5,10.6
				c-7.1,0-13.6-2.8-18.4-7.3c-6.5,5.3-14.9,8.5-23.9,8.5c-15.2,0-28.3-9-34.5-22c-1.4,0.2-2.9,0.4-4.4,0.4
				c-15.1,0-27.6-11.2-30-25.8C16.3,173.5,6.2,158,6.2,140.2z"/>
			<path id="XMLID_14_" class="st1" d="M23.2,139.4c0-18.4,12-34.1,28.7-39.4C54.8,70.8,79.4,48,109.3,48c15,0,28.7,5.8,39,15.2
				c1.3-27.6,24-49.5,51.9-49.5c23,0,42.4,14.9,49.3,35.5c4-0.8,8.2-1.2,12.5-1.2c37.4,0,67.7,30.3,67.7,67.7
				c0,26.7-15.4,49.8-37.9,60.8c0.5,2.6,0.8,5.3,0.8,8c0,23.6-19.1,42.7-42.7,42.7c-11.3,0-21.6-4.4-29.2-11.6
				c-6.2,5.5-14.4,8.9-23.4,8.9c-12.2,0-23-6.3-29.3-15.8c-4.6,5.8-11.7,9.6-19.8,9.6c-6.5,0-12.5-2.5-17-6.6
				c-6,4.8-13.6,7.7-22,7.7c-14,0-26-8.2-31.7-20c-1.3,0.2-2.7,0.3-4.1,0.3c-13.9,0-25.4-10.1-27.5-23.4
				C32.5,169.6,23.2,155.6,23.2,139.4z"/>
		</g>
	</g>
	<g id="XMLID_9_">
		<circle id="XMLID_11_" class="st2" cx="150" cy="212.5" r="21.5"/>
		<circle id="XMLID_10_" class="st1" cx="152.6" cy="215.6" r="15.5"/>
	</g>
	<g id="XMLID_6_">
		<circle id="XMLID_8_" class="st2" cx="186" cy="249.6" r="15.3"/>
		<circle id="XMLID_7_" class="st1" cx="183.1" cy="249.6" r="9.4"/>
	</g>
	<g id="XMLID_3_">
		<circle id="XMLID_5_" class="st2" cx="203.2" cy="282.6" r="8.3"/>
		<circle id="XMLID_4_" class="st1" cx="204.2" cy="283.7" r="5.1"/>
	</g>
</g>
</svg>
